STARTFONT 2.1
FONT -Fondu-BiauKai-Medium-R-Normal--9-90-75-75-P-48-MacRoman-1
SIZE 9 75 75
FONTBOUNDINGBOX 9 9 -1 -1
COMMENT Created by Fondu from a mac NFNT/FONT resource
STARTPROPERTIES 17
FOUNDRY "Fondu"
FAMILY_NAME "BiauKai"
WEIGHT_NAME "Medium"
SLANT "R"
SETWIDTH_NAME "Normal"
ADD_STYLE_NAME ""
PIXEL_SIZE 9
POINT_SIZE 90
RESOLUTION_X 75
RESOLUTION_Y 75
SPACING "P"
AVERAGE_WIDTH 48
CHARSET_REGISTRY "MacRoman"
CHARSET_ENCODING "1"
FONT_ASCENT 8
FONT_DESCENT 1
FACE_NAME "BiauKai"
ENDPROPERTIES
CHARS 252
STARTCHAR Eth
ENCODING 1
SWIDTH 0 0
DWIDTH 0 0
BBX 0 0 0 -1
BITMAP
ENDCHAR
STARTCHAR eth
ENCODING 2
SWIDTH 0 0
DWIDTH 0 0
BBX 0 0 0 -1
BITMAP
ENDCHAR
STARTCHAR Lslash
ENCODING 3
SWIDTH 0 0
DWIDTH 0 0
BBX 0 0 0 -1
BITMAP
ENDCHAR
STARTCHAR lslash
ENCODING 4
SWIDTH 0 0
DWIDTH 0 0
BBX 0 0 0 -1
BITMAP
ENDCHAR
STARTCHAR Scaron
ENCODING 5
SWIDTH 0 0
DWIDTH 0 0
BBX 0 0 0 -1
BITMAP
ENDCHAR
STARTCHAR scaron
ENCODING 6
SWIDTH 0 0
DWIDTH 0 0
BBX 0 0 0 -1
BITMAP
ENDCHAR
STARTCHAR Yacute
ENCODING 7
SWIDTH 0 0
DWIDTH 0 0
BBX 0 0 0 -1
BITMAP
ENDCHAR
STARTCHAR yacute
ENCODING 8
SWIDTH 0 0
DWIDTH 0 0
BBX 0 0 0 -1
BITMAP
ENDCHAR
STARTCHAR char000a
ENCODING 10
SWIDTH 0 0
DWIDTH 0 0
BBX 0 0 0 -1
BITMAP
ENDCHAR
STARTCHAR Thorn
ENCODING 11
SWIDTH 0 0
DWIDTH 0 0
BBX 0 0 0 -1
BITMAP
ENDCHAR
STARTCHAR thorn
ENCODING 12
SWIDTH 0 0
DWIDTH 0 0
BBX 0 0 0 -1
BITMAP
ENDCHAR
STARTCHAR Zcaron
ENCODING 14
SWIDTH 0 0
DWIDTH 0 0
BBX 0 0 0 -1
BITMAP
ENDCHAR
STARTCHAR zcaron
ENCODING 15
SWIDTH 0 0
DWIDTH 0 0
BBX 0 0 0 -1
BITMAP
ENDCHAR
STARTCHAR char0010
ENCODING 16
SWIDTH 0 0
DWIDTH 0 0
BBX 0 0 0 -1
BITMAP
ENDCHAR
STARTCHAR char0011
ENCODING 17
SWIDTH 500 0
DWIDTH 7 0
BBX 6 6 0 0
BITMAP
48
B4
78
78
B4
48
ENDCHAR
STARTCHAR char0012
ENCODING 18
SWIDTH 500 0
DWIDTH 6 0
BBX 5 8 0 -1
BITMAP
08
08
10
10
50
A0
20
20
ENDCHAR
STARTCHAR char0013
ENCODING 19
SWIDTH 500 0
DWIDTH 4 0
BBX 3 6 0 0
BITMAP
40
40
E0
E0
40
40
ENDCHAR
STARTCHAR char0014
ENCODING 20
SWIDTH 500 0
DWIDTH 6 0
BBX 5 7 0 0
BITMAP
10
20
70
F8
F0
F8
50
ENDCHAR
STARTCHAR onehalf
ENCODING 21
SWIDTH 0 0
DWIDTH 0 0
BBX 0 0 0 -1
BITMAP
ENDCHAR
STARTCHAR onequarter
ENCODING 22
SWIDTH 0 0
DWIDTH 0 0
BBX 0 0 0 -1
BITMAP
ENDCHAR
STARTCHAR onesuperior
ENCODING 23
SWIDTH 0 0
DWIDTH 0 0
BBX 0 0 0 -1
BITMAP
ENDCHAR
STARTCHAR threequarters
ENCODING 24
SWIDTH 0 0
DWIDTH 0 0
BBX 0 0 0 -1
BITMAP
ENDCHAR
STARTCHAR threesuperior
ENCODING 25
SWIDTH 0 0
DWIDTH 0 0
BBX 0 0 0 -1
BITMAP
ENDCHAR
STARTCHAR twosuperior
ENCODING 26
SWIDTH 0 0
DWIDTH 0 0
BBX 0 0 0 -1
BITMAP
ENDCHAR
STARTCHAR brokenbar
ENCODING 27
SWIDTH 0 0
DWIDTH 0 0
BBX 0 0 0 -1
BITMAP
ENDCHAR
STARTCHAR minus
ENCODING 28
SWIDTH 0 0
DWIDTH 0 0
BBX 0 0 0 -1
BITMAP
ENDCHAR
STARTCHAR multiply
ENCODING 29
SWIDTH 0 0
DWIDTH 0 0
BBX 0 0 0 -1
BITMAP
ENDCHAR
STARTCHAR char001e
ENCODING 30
SWIDTH 0 0
DWIDTH 0 0
BBX 0 0 0 -1
BITMAP
ENDCHAR
STARTCHAR char001f
ENCODING 31
SWIDTH 0 0
DWIDTH 0 0
BBX 0 0 0 -1
BITMAP
ENDCHAR
STARTCHAR space
ENCODING 32
SWIDTH 235 0
DWIDTH 2 0
BBX 0 0 0 -1
BITMAP
ENDCHAR
STARTCHAR exclam
ENCODING 33
SWIDTH 208 0
DWIDTH 2 0
BBX 1 6 0 0
BITMAP
80
80
80
80
00
80
ENDCHAR
STARTCHAR quotedbl
ENCODING 34
SWIDTH 406 0
DWIDTH 4 0
BBX 3 2 0 4
BITMAP
A0
A0
ENDCHAR
STARTCHAR numbersign
ENCODING 35
SWIDTH 667 0
DWIDTH 6 0
BBX 5 5 0 0
BITMAP
50
F8
50
F8
50
ENDCHAR
STARTCHAR dollar
ENCODING 36
SWIDTH 469 0
DWIDTH 4 0
BBX 3 6 0 0
BITMAP
40
E0
C0
60
E0
40
ENDCHAR
STARTCHAR percent
ENCODING 37
SWIDTH 938 0
DWIDTH 8 0
BBX 7 6 0 0
BITMAP
48
A8
50
14
2A
24
ENDCHAR
STARTCHAR ampersand
ENCODING 38
SWIDTH 781 0
DWIDTH 7 0
BBX 6 6 0 0
BITMAP
20
50
20
54
98
6C
ENDCHAR
STARTCHAR quotesingle
ENCODING 39
SWIDTH 177 0
DWIDTH 2 0
BBX 1 2 0 4
BITMAP
80
80
ENDCHAR
STARTCHAR parenleft
ENCODING 40
SWIDTH 260 0
DWIDTH 2 0
BBX 2 7 0 -1
BITMAP
40
80
80
80
80
80
40
ENDCHAR
STARTCHAR parenright
ENCODING 41
SWIDTH 260 0
DWIDTH 2 0
BBX 2 7 0 -1
BITMAP
80
40
40
40
40
40
80
ENDCHAR
STARTCHAR asterisk
ENCODING 42
SWIDTH 469 0
DWIDTH 4 0
BBX 3 4 0 2
BITMAP
40
E0
E0
40
ENDCHAR
STARTCHAR plus
ENCODING 43
SWIDTH 667 0
DWIDTH 6 0
BBX 5 5 0 0
BITMAP
20
20
F8
20
20
ENDCHAR
STARTCHAR comma
ENCODING 44
SWIDTH 208 0
DWIDTH 2 0
BBX 2 2 0 -1
BITMAP
40
80
ENDCHAR
STARTCHAR hyphen
ENCODING 45
SWIDTH 260 0
DWIDTH 2 0
BBX 2 1 0 2
BITMAP
C0
ENDCHAR
STARTCHAR period
ENCODING 46
SWIDTH 208 0
DWIDTH 2 0
BBX 1 1 0 0
BITMAP
80
ENDCHAR
STARTCHAR slash
ENCODING 47
SWIDTH 281 0
DWIDTH 3 0
BBX 3 6 0 0
BITMAP
20
20
40
40
80
80
ENDCHAR
STARTCHAR zero
ENCODING 48
SWIDTH 469 0
DWIDTH 4 0
BBX 4 6 0 0
BITMAP
60
90
90
90
90
60
ENDCHAR
STARTCHAR one
ENCODING 49
SWIDTH 469 0
DWIDTH 4 0
BBX 3 6 0 0
BITMAP
40
C0
40
40
40
E0
ENDCHAR
STARTCHAR two
ENCODING 50
SWIDTH 469 0
DWIDTH 4 0
BBX 4 6 0 0
BITMAP
60
90
10
20
50
F0
ENDCHAR
STARTCHAR three
ENCODING 51
SWIDTH 469 0
DWIDTH 4 0
BBX 4 6 0 0
BITMAP
60
10
60
10
90
60
ENDCHAR
STARTCHAR four
ENCODING 52
SWIDTH 469 0
DWIDTH 4 0
BBX 4 6 0 0
BITMAP
20
60
60
A0
F0
20
ENDCHAR
STARTCHAR five
ENCODING 53
SWIDTH 469 0
DWIDTH 4 0
BBX 4 6 0 0
BITMAP
F0
80
E0
10
90
60
ENDCHAR
STARTCHAR six
ENCODING 54
SWIDTH 469 0
DWIDTH 4 0
BBX 4 6 0 0
BITMAP
70
80
E0
90
90
60
ENDCHAR
STARTCHAR seven
ENCODING 55
SWIDTH 469 0
DWIDTH 4 0
BBX 4 6 0 0
BITMAP
F0
90
20
20
40
40
ENDCHAR
STARTCHAR eight
ENCODING 56
SWIDTH 469 0
DWIDTH 4 0
BBX 4 6 0 0
BITMAP
60
90
60
90
90
60
ENDCHAR
STARTCHAR nine
ENCODING 57
SWIDTH 469 0
DWIDTH 4 0
BBX 4 6 0 0
BITMAP
60
90
90
70
10
E0
ENDCHAR
STARTCHAR colon
ENCODING 58
SWIDTH 208 0
DWIDTH 2 0
BBX 1 4 0 0
BITMAP
80
00
00
80
ENDCHAR
STARTCHAR semicolon
ENCODING 59
SWIDTH 208 0
DWIDTH 2 0
BBX 2 5 -1 -1
BITMAP
40
00
00
40
80
ENDCHAR
STARTCHAR less
ENCODING 60
SWIDTH 667 0
DWIDTH 6 0
BBX 4 5 1 0
BITMAP
10
60
80
60
10
ENDCHAR
STARTCHAR equal
ENCODING 61
SWIDTH 667 0
DWIDTH 6 0
BBX 5 3 0 1
BITMAP
F8
00
F8
ENDCHAR
STARTCHAR greater
ENCODING 62
SWIDTH 667 0
DWIDTH 6 0
BBX 4 5 1 0
BITMAP
80
60
10
60
80
ENDCHAR
STARTCHAR question
ENCODING 63
SWIDTH 365 0
DWIDTH 3 0
BBX 3 6 0 0
BITMAP
C0
20
20
40
00
40
ENDCHAR
STARTCHAR at
ENCODING 64
SWIDTH 917 0
DWIDTH 8 0
BBX 7 7 0 -1
BITMAP
38
44
9A
AA
B4
42
3C
ENDCHAR
STARTCHAR A
ENCODING 65
SWIDTH 729 0
DWIDTH 7 0
BBX 5 6 1 0
BITMAP
20
20
50
70
88
88
ENDCHAR
STARTCHAR B
ENCODING 66
SWIDTH 625 0
DWIDTH 6 0
BBX 5 6 0 0
BITMAP
F0
48
70
48
48
F0
ENDCHAR
STARTCHAR C
ENCODING 67
SWIDTH 573 0
DWIDTH 5 0
BBX 4 6 0 0
BITMAP
60
90
80
80
90
60
ENDCHAR
STARTCHAR D
ENCODING 68
SWIDTH 677 0
DWIDTH 6 0
BBX 5 6 0 0
BITMAP
F0
48
48
48
48
F0
ENDCHAR
STARTCHAR E
ENCODING 69
SWIDTH 625 0
DWIDTH 6 0
BBX 5 6 0 0
BITMAP
F8
80
F0
80
80
F8
ENDCHAR
STARTCHAR F
ENCODING 70
SWIDTH 573 0
DWIDTH 5 0
BBX 4 6 0 0
BITMAP
F0
80
E0
80
80
80
ENDCHAR
STARTCHAR G
ENCODING 71
SWIDTH 677 0
DWIDTH 6 0
BBX 5 6 0 0
BITMAP
70
88
80
98
88
70
ENDCHAR
STARTCHAR H
ENCODING 72
SWIDTH 677 0
DWIDTH 6 0
BBX 5 6 0 0
BITMAP
88
88
F8
88
88
88
ENDCHAR
STARTCHAR I
ENCODING 73
SWIDTH 312 0
DWIDTH 3 0
BBX 1 6 1 0
BITMAP
80
80
80
80
80
80
ENDCHAR
STARTCHAR J
ENCODING 74
SWIDTH 313 0
DWIDTH 3 0
BBX 2 7 0 -1
BITMAP
40
40
40
40
40
40
80
ENDCHAR
STARTCHAR K
ENCODING 75
SWIDTH 677 0
DWIDTH 6 0
BBX 4 6 1 0
BITMAP
90
A0
C0
C0
A0
90
ENDCHAR
STARTCHAR L
ENCODING 76
SWIDTH 573 0
DWIDTH 5 0
BBX 4 6 0 0
BITMAP
80
80
80
80
80
F0
ENDCHAR
STARTCHAR M
ENCODING 77
SWIDTH 833 0
DWIDTH 7 0
BBX 5 6 1 0
BITMAP
88
88
D8
D8
A8
A8
ENDCHAR
STARTCHAR N
ENCODING 78
SWIDTH 677 0
DWIDTH 6 0
BBX 5 6 0 0
BITMAP
88
C8
A8
A8
98
88
ENDCHAR
STARTCHAR O
ENCODING 79
SWIDTH 677 0
DWIDTH 6 0
BBX 5 6 0 0
BITMAP
70
88
88
88
88
70
ENDCHAR
STARTCHAR P
ENCODING 80
SWIDTH 573 0
DWIDTH 5 0
BBX 4 6 0 0
BITMAP
E0
90
90
E0
80
80
ENDCHAR
STARTCHAR Q
ENCODING 81
SWIDTH 677 0
DWIDTH 6 0
BBX 5 7 0 -1
BITMAP
70
88
88
A8
D8
70
18
ENDCHAR
STARTCHAR R
ENCODING 82
SWIDTH 625 0
DWIDTH 6 0
BBX 4 6 0 0
BITMAP
E0
90
90
E0
A0
90
ENDCHAR
STARTCHAR S
ENCODING 83
SWIDTH 521 0
DWIDTH 5 0
BBX 4 6 0 0
BITMAP
60
90
40
20
90
60
ENDCHAR
STARTCHAR T
ENCODING 84
SWIDTH 677 0
DWIDTH 6 0
BBX 5 6 0 0
BITMAP
F8
20
20
20
20
20
ENDCHAR
STARTCHAR U
ENCODING 85
SWIDTH 677 0
DWIDTH 6 0
BBX 5 6 0 0
BITMAP
88
88
88
88
88
70
ENDCHAR
STARTCHAR V
ENCODING 86
SWIDTH 677 0
DWIDTH 6 0
BBX 5 6 0 0
BITMAP
88
88
50
50
20
20
ENDCHAR
STARTCHAR W
ENCODING 87
SWIDTH 938 0
DWIDTH 8 0
BBX 7 6 0 0
BITMAP
92
92
AA
AA
44
44
ENDCHAR
STARTCHAR X
ENCODING 88
SWIDTH 677 0
DWIDTH 6 0
BBX 5 6 0 0
BITMAP
D8
50
20
20
50
D8
ENDCHAR
STARTCHAR Y
ENCODING 89
SWIDTH 677 0
DWIDTH 6 0
BBX 5 6 0 0
BITMAP
88
88
50
20
20
70
ENDCHAR
STARTCHAR Z
ENCODING 90
SWIDTH 573 0
DWIDTH 5 0
BBX 4 6 0 0
BITMAP
F0
90
20
40
90
F0
ENDCHAR
STARTCHAR bracketleft
ENCODING 91
SWIDTH 260 0
DWIDTH 2 0
BBX 2 7 0 -1
BITMAP
C0
80
80
80
80
80
C0
ENDCHAR
STARTCHAR backslash
ENCODING 92
SWIDTH 281 0
DWIDTH 3 0
BBX 3 6 0 0
BITMAP
80
80
40
40
20
20
ENDCHAR
STARTCHAR bracketright
ENCODING 93
SWIDTH 260 0
DWIDTH 2 0
BBX 2 7 0 -1
BITMAP
C0
40
40
40
40
40
C0
ENDCHAR
STARTCHAR asciicircum
ENCODING 94
SWIDTH 469 0
DWIDTH 4 0
BBX 3 2 0 4
BITMAP
40
A0
ENDCHAR
STARTCHAR underscore
ENCODING 95
SWIDTH 500 0
DWIDTH 5 0
BBX 4 1 0 -1
BITMAP
F0
ENDCHAR
STARTCHAR grave
ENCODING 96
SWIDTH 333 0
DWIDTH 3 0
BBX 2 2 0 4
BITMAP
80
40
ENDCHAR
STARTCHAR a
ENCODING 97
SWIDTH 469 0
DWIDTH 4 0
BBX 4 4 0 0
BITMAP
C0
60
A0
50
ENDCHAR
STARTCHAR b
ENCODING 98
SWIDTH 521 0
DWIDTH 5 0
BBX 4 6 0 0
BITMAP
C0
40
60
50
50
60
ENDCHAR
STARTCHAR c
ENCODING 99
SWIDTH 417 0
DWIDTH 4 0
BBX 3 4 0 0
BITMAP
60
80
80
60
ENDCHAR
STARTCHAR d
ENCODING 100
SWIDTH 521 0
DWIDTH 5 0
BBX 4 6 0 0
BITMAP
60
20
60
A0
A0
70
ENDCHAR
STARTCHAR e
ENCODING 101
SWIDTH 417 0
DWIDTH 4 0
BBX 3 4 0 0
BITMAP
40
E0
80
60
ENDCHAR
STARTCHAR f
ENCODING 102
SWIDTH 313 0
DWIDTH 3 0
BBX 2 6 0 0
BITMAP
40
80
C0
80
80
80
ENDCHAR
STARTCHAR g
ENCODING 103
SWIDTH 521 0
DWIDTH 5 0
BBX 4 5 0 -1
BITMAP
50
A0
60
90
60
ENDCHAR
STARTCHAR h
ENCODING 104
SWIDTH 521 0
DWIDTH 5 0
BBX 4 6 0 0
BITMAP
C0
40
60
50
50
50
ENDCHAR
STARTCHAR i
ENCODING 105
SWIDTH 260 0
DWIDTH 2 0
BBX 1 6 0 0
BITMAP
80
00
80
80
80
80
ENDCHAR
STARTCHAR j
ENCODING 106
SWIDTH 260 0
DWIDTH 2 0
BBX 2 7 -1 -1
BITMAP
40
00
40
40
40
40
80
ENDCHAR
STARTCHAR k
ENCODING 107
SWIDTH 521 0
DWIDTH 5 0
BBX 4 6 0 0
BITMAP
C0
40
50
60
60
D0
ENDCHAR
STARTCHAR l
ENCODING 108
SWIDTH 260 0
DWIDTH 2 0
BBX 1 6 0 0
BITMAP
80
80
80
80
80
80
ENDCHAR
STARTCHAR m
ENCODING 109
SWIDTH 781 0
DWIDTH 7 0
BBX 6 4 0 0
BITMAP
A8
54
54
54
ENDCHAR
STARTCHAR n
ENCODING 110
SWIDTH 521 0
DWIDTH 5 0
BBX 4 4 0 0
BITMAP
A0
50
50
50
ENDCHAR
STARTCHAR o
ENCODING 111
SWIDTH 469 0
DWIDTH 4 0
BBX 3 4 0 0
BITMAP
40
A0
A0
40
ENDCHAR
STARTCHAR p
ENCODING 112
SWIDTH 521 0
DWIDTH 5 0
BBX 4 5 0 -1
BITMAP
E0
90
90
E0
80
ENDCHAR
STARTCHAR q
ENCODING 113
SWIDTH 521 0
DWIDTH 5 0
BBX 4 5 0 -1
BITMAP
70
90
90
70
10
ENDCHAR
STARTCHAR r
ENCODING 114
SWIDTH 365 0
DWIDTH 3 0
BBX 2 4 0 0
BITMAP
C0
80
80
80
ENDCHAR
STARTCHAR s
ENCODING 115
SWIDTH 417 0
DWIDTH 4 0
BBX 3 4 0 0
BITMAP
60
C0
60
C0
ENDCHAR
STARTCHAR t
ENCODING 116
SWIDTH 313 0
DWIDTH 3 0
BBX 2 5 0 0
BITMAP
80
C0
80
80
40
ENDCHAR
STARTCHAR u
ENCODING 117
SWIDTH 521 0
DWIDTH 5 0
BBX 4 4 0 0
BITMAP
A0
A0
A0
50
ENDCHAR
STARTCHAR v
ENCODING 118
SWIDTH 521 0
DWIDTH 5 0
BBX 3 4 1 0
BITMAP
A0
A0
40
40
ENDCHAR
STARTCHAR w
ENCODING 119
SWIDTH 729 0
DWIDTH 7 0
BBX 5 4 1 0
BITMAP
A8
A8
50
50
ENDCHAR
STARTCHAR x
ENCODING 120
SWIDTH 521 0
DWIDTH 5 0
BBX 4 4 0 0
BITMAP
90
60
60
90
ENDCHAR
STARTCHAR y
ENCODING 121
SWIDTH 521 0
DWIDTH 5 0
BBX 3 5 1 -1
BITMAP
A0
A0
40
40
80
ENDCHAR
STARTCHAR z
ENCODING 122
SWIDTH 417 0
DWIDTH 4 0
BBX 3 4 0 0
BITMAP
E0
40
80
E0
ENDCHAR
STARTCHAR braceleft
ENCODING 123
SWIDTH 479 0
DWIDTH 4 0
BBX 3 7 0 -1
BITMAP
20
40
40
C0
40
40
20
ENDCHAR
STARTCHAR bar
ENCODING 124
SWIDTH 510 0
DWIDTH 5 0
BBX 1 7 2 -1
BITMAP
80
80
80
80
80
80
80
ENDCHAR
STARTCHAR braceright
ENCODING 125
SWIDTH 479 0
DWIDTH 4 0
BBX 3 7 0 -1
BITMAP
80
40
40
60
40
40
80
ENDCHAR
STARTCHAR asciitilde
ENCODING 126
SWIDTH 667 0
DWIDTH 6 0
BBX 5 2 0 2
BITMAP
68
B0
ENDCHAR
STARTCHAR Adieresis
ENCODING 128
SWIDTH 281 0
DWIDTH 3 0
BBX 3 6 0 0
BITMAP
80
80
40
40
20
20
ENDCHAR
STARTCHAR Aring
ENCODING 129
SWIDTH 1000 0
DWIDTH 1 0
BBX 1 9 0 -1
BITMAP
80
80
80
80
80
80
80
80
80
ENDCHAR
STARTCHAR Ccedilla
ENCODING 130
SWIDTH 1000 0
DWIDTH 9 0
BBX 9 1 0 0
BITMAP
FF80
ENDCHAR
STARTCHAR Eacute
ENCODING 131
SWIDTH 1000 0
DWIDTH 9 0
BBX 9 9 0 -1
BITMAP
FF80
FF80
FF80
FF80
FF80
FF80
FF80
FF80
FF80
ENDCHAR
STARTCHAR Ntilde
ENCODING 132
SWIDTH 1000 0
DWIDTH 9 0
BBX 9 9 0 -1
BITMAP
FF80
FF80
FF80
FF80
FF80
FF80
FF80
FF80
FF80
ENDCHAR
STARTCHAR Odieresis
ENCODING 133
SWIDTH 1000 0
DWIDTH 9 0
BBX 9 9 0 -1
BITMAP
FF80
FF80
FF80
FF80
FF80
FF80
FF80
FF80
FF80
ENDCHAR
STARTCHAR Udieresis
ENCODING 134
SWIDTH 1000 0
DWIDTH 9 0
BBX 9 9 0 -1
BITMAP
FF80
FF80
FF80
FF80
FF80
FF80
FF80
FF80
FF80
ENDCHAR
STARTCHAR aacute
ENCODING 135
SWIDTH 1000 0
DWIDTH 9 0
BBX 9 9 0 -1
BITMAP
FF80
FF80
FF80
FF80
FF80
FF80
FF80
FF80
FF80
ENDCHAR
STARTCHAR agrave
ENCODING 136
SWIDTH 1000 0
DWIDTH 9 0
BBX 9 9 0 -1
BITMAP
FF80
FF80
FF80
FF80
FF80
FF80
FF80
FF80
FF80
ENDCHAR
STARTCHAR acircumflex
ENCODING 137
SWIDTH 1000 0
DWIDTH 9 0
BBX 9 9 0 -1
BITMAP
FF80
FF80
FF80
FF80
FF80
FF80
FF80
FF80
FF80
ENDCHAR
STARTCHAR adieresis
ENCODING 138
SWIDTH 1000 0
DWIDTH 9 0
BBX 9 9 0 -1
BITMAP
FF80
FF80
FF80
FF80
FF80
FF80
FF80
FF80
FF80
ENDCHAR
STARTCHAR atilde
ENCODING 139
SWIDTH 1000 0
DWIDTH 9 0
BBX 9 9 0 -1
BITMAP
FF80
FF80
FF80
FF80
FF80
FF80
FF80
FF80
FF80
ENDCHAR
STARTCHAR aring
ENCODING 140
SWIDTH 1000 0
DWIDTH 9 0
BBX 9 9 0 -1
BITMAP
FF80
FF80
FF80
FF80
FF80
FF80
FF80
FF80
FF80
ENDCHAR
STARTCHAR ccedilla
ENCODING 141
SWIDTH 1000 0
DWIDTH 9 0
BBX 9 9 0 -1
BITMAP
FF80
FF80
FF80
FF80
FF80
FF80
FF80
FF80
FF80
ENDCHAR
STARTCHAR eacute
ENCODING 142
SWIDTH 1000 0
DWIDTH 9 0
BBX 9 9 0 -1
BITMAP
FF80
FF80
FF80
FF80
FF80
FF80
FF80
FF80
FF80
ENDCHAR
STARTCHAR egrave
ENCODING 143
SWIDTH 1000 0
DWIDTH 9 0
BBX 9 9 0 -1
BITMAP
FF80
FF80
FF80
FF80
FF80
FF80
FF80
FF80
FF80
ENDCHAR
STARTCHAR ecircumflex
ENCODING 144
SWIDTH 1000 0
DWIDTH 9 0
BBX 9 9 0 -1
BITMAP
FF80
FF80
FF80
FF80
FF80
FF80
FF80
FF80
FF80
ENDCHAR
STARTCHAR edieresis
ENCODING 145
SWIDTH 1000 0
DWIDTH 9 0
BBX 9 9 0 -1
BITMAP
FF80
FF80
FF80
FF80
FF80
FF80
FF80
FF80
FF80
ENDCHAR
STARTCHAR iacute
ENCODING 146
SWIDTH 1000 0
DWIDTH 9 0
BBX 9 9 0 -1
BITMAP
FF80
FF80
FF80
FF80
FF80
FF80
FF80
FF80
FF80
ENDCHAR
STARTCHAR igrave
ENCODING 147
SWIDTH 1000 0
DWIDTH 9 0
BBX 9 9 0 -1
BITMAP
FF80
FF80
FF80
FF80
FF80
FF80
FF80
FF80
FF80
ENDCHAR
STARTCHAR icircumflex
ENCODING 148
SWIDTH 1000 0
DWIDTH 9 0
BBX 9 9 0 -1
BITMAP
FF80
FF80
FF80
FF80
FF80
FF80
FF80
FF80
FF80
ENDCHAR
STARTCHAR idieresis
ENCODING 149
SWIDTH 1000 0
DWIDTH 9 0
BBX 9 9 0 -1
BITMAP
FF80
FF80
FF80
FF80
FF80
FF80
FF80
FF80
FF80
ENDCHAR
STARTCHAR ntilde
ENCODING 150
SWIDTH 1000 0
DWIDTH 9 0
BBX 9 9 0 -1
BITMAP
FF80
FF80
FF80
FF80
FF80
FF80
FF80
FF80
FF80
ENDCHAR
STARTCHAR oacute
ENCODING 151
SWIDTH 1000 0
DWIDTH 9 0
BBX 9 9 0 -1
BITMAP
FF80
FF80
FF80
FF80
FF80
FF80
FF80
FF80
FF80
ENDCHAR
STARTCHAR ograve
ENCODING 152
SWIDTH 1000 0
DWIDTH 9 0
BBX 9 9 0 -1
BITMAP
FF80
FF80
FF80
FF80
FF80
FF80
FF80
FF80
FF80
ENDCHAR
STARTCHAR ocircumflex
ENCODING 153
SWIDTH 1000 0
DWIDTH 9 0
BBX 9 9 0 -1
BITMAP
FF80
FF80
FF80
FF80
FF80
FF80
FF80
FF80
FF80
ENDCHAR
STARTCHAR odieresis
ENCODING 154
SWIDTH 1000 0
DWIDTH 9 0
BBX 9 9 0 -1
BITMAP
FF80
FF80
FF80
FF80
FF80
FF80
FF80
FF80
FF80
ENDCHAR
STARTCHAR otilde
ENCODING 155
SWIDTH 1000 0
DWIDTH 9 0
BBX 9 9 0 -1
BITMAP
FF80
FF80
FF80
FF80
FF80
FF80
FF80
FF80
FF80
ENDCHAR
STARTCHAR uacute
ENCODING 156
SWIDTH 1000 0
DWIDTH 9 0
BBX 9 9 0 -1
BITMAP
FF80
FF80
FF80
FF80
FF80
FF80
FF80
FF80
FF80
ENDCHAR
STARTCHAR ugrave
ENCODING 157
SWIDTH 1000 0
DWIDTH 9 0
BBX 9 9 0 -1
BITMAP
FF80
FF80
FF80
FF80
FF80
FF80
FF80
FF80
FF80
ENDCHAR
STARTCHAR ucircumflex
ENCODING 158
SWIDTH 1000 0
DWIDTH 9 0
BBX 9 9 0 -1
BITMAP
FF80
FF80
FF80
FF80
FF80
FF80
FF80
FF80
FF80
ENDCHAR
STARTCHAR udieresis
ENCODING 159
SWIDTH 1000 0
DWIDTH 9 0
BBX 9 9 0 -1
BITMAP
FF80
FF80
FF80
FF80
FF80
FF80
FF80
FF80
FF80
ENDCHAR
STARTCHAR dagger
ENCODING 160
SWIDTH 500 0
DWIDTH 5 0
BBX 0 0 0 -1
BITMAP
ENDCHAR
STARTCHAR degree
ENCODING 161
SWIDTH 500 0
DWIDTH 5 0
BBX 0 0 0 -1
BITMAP
ENDCHAR
STARTCHAR cent
ENCODING 162
SWIDTH 500 0
DWIDTH 5 0
BBX 0 0 0 -1
BITMAP
ENDCHAR
STARTCHAR sterling
ENCODING 163
SWIDTH 500 0
DWIDTH 5 0
BBX 0 0 0 -1
BITMAP
ENDCHAR
STARTCHAR section
ENCODING 164
SWIDTH 500 0
DWIDTH 5 0
BBX 0 0 0 -1
BITMAP
ENDCHAR
STARTCHAR bullet
ENCODING 165
SWIDTH 500 0
DWIDTH 5 0
BBX 0 0 0 -1
BITMAP
ENDCHAR
STARTCHAR paragraph
ENCODING 166
SWIDTH 500 0
DWIDTH 5 0
BBX 0 0 0 -1
BITMAP
ENDCHAR
STARTCHAR germandbls
ENCODING 167
SWIDTH 500 0
DWIDTH 5 0
BBX 0 0 0 -1
BITMAP
ENDCHAR
STARTCHAR registered
ENCODING 168
SWIDTH 500 0
DWIDTH 5 0
BBX 0 0 0 -1
BITMAP
ENDCHAR
STARTCHAR copyright
ENCODING 169
SWIDTH 500 0
DWIDTH 5 0
BBX 0 0 0 -1
BITMAP
ENDCHAR
STARTCHAR trademark
ENCODING 170
SWIDTH 500 0
DWIDTH 5 0
BBX 0 0 0 -1
BITMAP
ENDCHAR
STARTCHAR acute
ENCODING 171
SWIDTH 500 0
DWIDTH 5 0
BBX 0 0 0 -1
BITMAP
ENDCHAR
STARTCHAR dieresis
ENCODING 172
SWIDTH 500 0
DWIDTH 5 0
BBX 0 0 0 -1
BITMAP
ENDCHAR
STARTCHAR notequal
ENCODING 173
SWIDTH 500 0
DWIDTH 5 0
BBX 0 0 0 -1
BITMAP
ENDCHAR
STARTCHAR AE
ENCODING 174
SWIDTH 500 0
DWIDTH 5 0
BBX 0 0 0 -1
BITMAP
ENDCHAR
STARTCHAR Oslash
ENCODING 175
SWIDTH 500 0
DWIDTH 5 0
BBX 0 0 0 -1
BITMAP
ENDCHAR
STARTCHAR infinity
ENCODING 176
SWIDTH 500 0
DWIDTH 5 0
BBX 0 0 0 -1
BITMAP
ENDCHAR
STARTCHAR plusminus
ENCODING 177
SWIDTH 500 0
DWIDTH 5 0
BBX 0 0 0 -1
BITMAP
ENDCHAR
STARTCHAR lessequal
ENCODING 178
SWIDTH 500 0
DWIDTH 5 0
BBX 0 0 0 -1
BITMAP
ENDCHAR
STARTCHAR greaterequal
ENCODING 179
SWIDTH 500 0
DWIDTH 5 0
BBX 0 0 0 -1
BITMAP
ENDCHAR
STARTCHAR yen
ENCODING 180
SWIDTH 500 0
DWIDTH 5 0
BBX 0 0 0 -1
BITMAP
ENDCHAR
STARTCHAR mu
ENCODING 181
SWIDTH 500 0
DWIDTH 5 0
BBX 0 0 0 -1
BITMAP
ENDCHAR
STARTCHAR partialdiff
ENCODING 182
SWIDTH 500 0
DWIDTH 5 0
BBX 0 0 0 -1
BITMAP
ENDCHAR
STARTCHAR summation
ENCODING 183
SWIDTH 500 0
DWIDTH 5 0
BBX 0 0 0 -1
BITMAP
ENDCHAR
STARTCHAR product
ENCODING 184
SWIDTH 500 0
DWIDTH 5 0
BBX 0 0 0 -1
BITMAP
ENDCHAR
STARTCHAR pi
ENCODING 185
SWIDTH 500 0
DWIDTH 5 0
BBX 0 0 0 -1
BITMAP
ENDCHAR
STARTCHAR integral
ENCODING 186
SWIDTH 500 0
DWIDTH 5 0
BBX 0 0 0 -1
BITMAP
ENDCHAR
STARTCHAR ordfeminine
ENCODING 187
SWIDTH 500 0
DWIDTH 5 0
BBX 0 0 0 -1
BITMAP
ENDCHAR
STARTCHAR ordmasculine
ENCODING 188
SWIDTH 500 0
DWIDTH 5 0
BBX 0 0 0 -1
BITMAP
ENDCHAR
STARTCHAR Omega
ENCODING 189
SWIDTH 500 0
DWIDTH 5 0
BBX 0 0 0 -1
BITMAP
ENDCHAR
STARTCHAR ae
ENCODING 190
SWIDTH 500 0
DWIDTH 5 0
BBX 0 0 0 -1
BITMAP
ENDCHAR
STARTCHAR oslash
ENCODING 191
SWIDTH 500 0
DWIDTH 5 0
BBX 0 0 0 -1
BITMAP
ENDCHAR
STARTCHAR questiondown
ENCODING 192
SWIDTH 500 0
DWIDTH 5 0
BBX 0 0 0 -1
BITMAP
ENDCHAR
STARTCHAR exclamdown
ENCODING 193
SWIDTH 500 0
DWIDTH 5 0
BBX 0 0 0 -1
BITMAP
ENDCHAR
STARTCHAR logicalnot
ENCODING 194
SWIDTH 500 0
DWIDTH 5 0
BBX 0 0 0 -1
BITMAP
ENDCHAR
STARTCHAR radical
ENCODING 195
SWIDTH 500 0
DWIDTH 5 0
BBX 0 0 0 -1
BITMAP
ENDCHAR
STARTCHAR florin
ENCODING 196
SWIDTH 500 0
DWIDTH 5 0
BBX 0 0 0 -1
BITMAP
ENDCHAR
STARTCHAR approxequal
ENCODING 197
SWIDTH 500 0
DWIDTH 5 0
BBX 0 0 0 -1
BITMAP
ENDCHAR
STARTCHAR Delta
ENCODING 198
SWIDTH 500 0
DWIDTH 5 0
BBX 0 0 0 -1
BITMAP
ENDCHAR
STARTCHAR guillemotleft
ENCODING 199
SWIDTH 500 0
DWIDTH 5 0
BBX 0 0 0 -1
BITMAP
ENDCHAR
STARTCHAR guillemotright
ENCODING 200
SWIDTH 500 0
DWIDTH 5 0
BBX 0 0 0 -1
BITMAP
ENDCHAR
STARTCHAR ellipsis
ENCODING 201
SWIDTH 500 0
DWIDTH 5 0
BBX 0 0 0 -1
BITMAP
ENDCHAR
STARTCHAR nbspace
ENCODING 202
SWIDTH 500 0
DWIDTH 5 0
BBX 0 0 0 -1
BITMAP
ENDCHAR
STARTCHAR Agrave
ENCODING 203
SWIDTH 500 0
DWIDTH 5 0
BBX 0 0 0 -1
BITMAP
ENDCHAR
STARTCHAR Atilde
ENCODING 204
SWIDTH 500 0
DWIDTH 5 0
BBX 0 0 0 -1
BITMAP
ENDCHAR
STARTCHAR Otilde
ENCODING 205
SWIDTH 500 0
DWIDTH 5 0
BBX 0 0 0 -1
BITMAP
ENDCHAR
STARTCHAR OE
ENCODING 206
SWIDTH 500 0
DWIDTH 5 0
BBX 0 0 0 -1
BITMAP
ENDCHAR
STARTCHAR oe
ENCODING 207
SWIDTH 500 0
DWIDTH 5 0
BBX 0 0 0 -1
BITMAP
ENDCHAR
STARTCHAR endash
ENCODING 208
SWIDTH 500 0
DWIDTH 5 0
BBX 0 0 0 -1
BITMAP
ENDCHAR
STARTCHAR emdash
ENCODING 209
SWIDTH 500 0
DWIDTH 5 0
BBX 0 0 0 -1
BITMAP
ENDCHAR
STARTCHAR quotedblleft
ENCODING 210
SWIDTH 500 0
DWIDTH 5 0
BBX 0 0 0 -1
BITMAP
ENDCHAR
STARTCHAR quotedblright
ENCODING 211
SWIDTH 500 0
DWIDTH 5 0
BBX 0 0 0 -1
BITMAP
ENDCHAR
STARTCHAR quoteleft
ENCODING 212
SWIDTH 500 0
DWIDTH 5 0
BBX 0 0 0 -1
BITMAP
ENDCHAR
STARTCHAR quoteright
ENCODING 213
SWIDTH 500 0
DWIDTH 5 0
BBX 0 0 0 -1
BITMAP
ENDCHAR
STARTCHAR divide
ENCODING 214
SWIDTH 500 0
DWIDTH 5 0
BBX 0 0 0 -1
BITMAP
ENDCHAR
STARTCHAR lozenge
ENCODING 215
SWIDTH 500 0
DWIDTH 5 0
BBX 0 0 0 -1
BITMAP
ENDCHAR
STARTCHAR ydieresis
ENCODING 216
SWIDTH 500 0
DWIDTH 5 0
BBX 0 0 0 -1
BITMAP
ENDCHAR
STARTCHAR Ydieresis
ENCODING 217
SWIDTH 500 0
DWIDTH 5 0
BBX 0 0 0 -1
BITMAP
ENDCHAR
STARTCHAR fraction
ENCODING 218
SWIDTH 500 0
DWIDTH 5 0
BBX 0 0 0 -1
BITMAP
ENDCHAR
STARTCHAR currency
ENCODING 219
SWIDTH 500 0
DWIDTH 5 0
BBX 0 0 0 -1
BITMAP
ENDCHAR
STARTCHAR guilsinglleft
ENCODING 220
SWIDTH 500 0
DWIDTH 5 0
BBX 0 0 0 -1
BITMAP
ENDCHAR
STARTCHAR guilsinglright
ENCODING 221
SWIDTH 500 0
DWIDTH 5 0
BBX 0 0 0 -1
BITMAP
ENDCHAR
STARTCHAR fi
ENCODING 222
SWIDTH 500 0
DWIDTH 5 0
BBX 0 0 0 -1
BITMAP
ENDCHAR
STARTCHAR fl
ENCODING 223
SWIDTH 500 0
DWIDTH 5 0
BBX 0 0 0 -1
BITMAP
ENDCHAR
STARTCHAR daggerdbl
ENCODING 224
SWIDTH 500 0
DWIDTH 5 0
BBX 0 0 0 -1
BITMAP
ENDCHAR
STARTCHAR periodcentered
ENCODING 225
SWIDTH 500 0
DWIDTH 5 0
BBX 0 0 0 -1
BITMAP
ENDCHAR
STARTCHAR quotesinglbase
ENCODING 226
SWIDTH 500 0
DWIDTH 5 0
BBX 0 0 0 -1
BITMAP
ENDCHAR
STARTCHAR quotedblbase
ENCODING 227
SWIDTH 500 0
DWIDTH 5 0
BBX 0 0 0 -1
BITMAP
ENDCHAR
STARTCHAR perthousand
ENCODING 228
SWIDTH 500 0
DWIDTH 5 0
BBX 0 0 0 -1
BITMAP
ENDCHAR
STARTCHAR Acircumflex
ENCODING 229
SWIDTH 500 0
DWIDTH 5 0
BBX 0 0 0 -1
BITMAP
ENDCHAR
STARTCHAR Ecircumflex
ENCODING 230
SWIDTH 500 0
DWIDTH 5 0
BBX 0 0 0 -1
BITMAP
ENDCHAR
STARTCHAR Aacute
ENCODING 231
SWIDTH 500 0
DWIDTH 5 0
BBX 0 0 0 -1
BITMAP
ENDCHAR
STARTCHAR Edieresis
ENCODING 232
SWIDTH 500 0
DWIDTH 5 0
BBX 0 0 0 -1
BITMAP
ENDCHAR
STARTCHAR Egrave
ENCODING 233
SWIDTH 500 0
DWIDTH 5 0
BBX 0 0 0 -1
BITMAP
ENDCHAR
STARTCHAR Iacute
ENCODING 234
SWIDTH 500 0
DWIDTH 5 0
BBX 0 0 0 -1
BITMAP
ENDCHAR
STARTCHAR Icircumflex
ENCODING 235
SWIDTH 500 0
DWIDTH 5 0
BBX 0 0 0 -1
BITMAP
ENDCHAR
STARTCHAR Idieresis
ENCODING 236
SWIDTH 500 0
DWIDTH 5 0
BBX 0 0 0 -1
BITMAP
ENDCHAR
STARTCHAR Igrave
ENCODING 237
SWIDTH 500 0
DWIDTH 5 0
BBX 0 0 0 -1
BITMAP
ENDCHAR
STARTCHAR Oacute
ENCODING 238
SWIDTH 500 0
DWIDTH 5 0
BBX 0 0 0 -1
BITMAP
ENDCHAR
STARTCHAR Ocircumflex
ENCODING 239
SWIDTH 500 0
DWIDTH 5 0
BBX 0 0 0 -1
BITMAP
ENDCHAR
STARTCHAR apple
ENCODING 240
SWIDTH 500 0
DWIDTH 5 0
BBX 0 0 0 -1
BITMAP
ENDCHAR
STARTCHAR Ograve
ENCODING 241
SWIDTH 500 0
DWIDTH 5 0
BBX 0 0 0 -1
BITMAP
ENDCHAR
STARTCHAR Uacute
ENCODING 242
SWIDTH 500 0
DWIDTH 5 0
BBX 0 0 0 -1
BITMAP
ENDCHAR
STARTCHAR Ucircumflex
ENCODING 243
SWIDTH 500 0
DWIDTH 5 0
BBX 0 0 0 -1
BITMAP
ENDCHAR
STARTCHAR Ugrave
ENCODING 244
SWIDTH 500 0
DWIDTH 5 0
BBX 0 0 0 -1
BITMAP
ENDCHAR
STARTCHAR dotlessi
ENCODING 245
SWIDTH 500 0
DWIDTH 5 0
BBX 0 0 0 -1
BITMAP
ENDCHAR
STARTCHAR circumflex
ENCODING 246
SWIDTH 500 0
DWIDTH 5 0
BBX 0 0 0 -1
BITMAP
ENDCHAR
STARTCHAR tilde
ENCODING 247
SWIDTH 500 0
DWIDTH 5 0
BBX 0 0 0 -1
BITMAP
ENDCHAR
STARTCHAR macron
ENCODING 248
SWIDTH 500 0
DWIDTH 5 0
BBX 0 0 0 -1
BITMAP
ENDCHAR
STARTCHAR breve
ENCODING 249
SWIDTH 500 0
DWIDTH 5 0
BBX 0 0 0 -1
BITMAP
ENDCHAR
STARTCHAR dotaccent
ENCODING 250
SWIDTH 500 0
DWIDTH 5 0
BBX 0 0 0 -1
BITMAP
ENDCHAR
STARTCHAR ring
ENCODING 251
SWIDTH 500 0
DWIDTH 5 0
BBX 0 0 0 -1
BITMAP
ENDCHAR
STARTCHAR cedilla
ENCODING 252
SWIDTH 500 0
DWIDTH 5 0
BBX 0 0 0 -1
BITMAP
ENDCHAR
STARTCHAR hungarumlaut
ENCODING 253
SWIDTH 760 0
DWIDTH 7 0
BBX 7 7 0 0
BITMAP
38
44
9A
A2
9A
44
38
ENDCHAR
STARTCHAR ogonek
ENCODING 254
SWIDTH 979 0
DWIDTH 9 0
BBX 8 4 0 2
BITMAP
F1
5B
5F
55
ENDCHAR
STARTCHAR caron
ENCODING 255
SWIDTH 1000 0
DWIDTH 9 0
BBX 5 1 1 1
BITMAP
A8
ENDCHAR
ENDFONT
